<mxfile host="app.diagrams.net" modified="2022-11-14T10:24:58.287Z" agent="5.0 (Macintosh; Intel Mac OS X 10_15_7) AppleWebKit/537.36 (KHTML, like Gecko) Chrome/107.0.0.0 Safari/537.36" etag="aOArZ5S-W_4uT_RwL1Wv" version="20.5.3" type="github">
  <diagram id="8JChh_IW_Uio7kKtnG_b" name="Page-1">
    <mxGraphModel dx="1426" dy="794" grid="1" gridSize="10" guides="1" tooltips="1" connect="1" arrows="1" fold="1" page="1" pageScale="1" pageWidth="850" pageHeight="1100" math="0" shadow="0">
      <root>
        <mxCell id="0" />
        <mxCell id="1" parent="0" />
        <mxCell id="mla7A_ORbmx96dpXD8-T-1" value="" style="ellipse;whiteSpace=wrap;html=1;aspect=fixed;" vertex="1" parent="1">
          <mxGeometry x="330" y="270" width="30" height="30" as="geometry" />
        </mxCell>
        <mxCell id="mla7A_ORbmx96dpXD8-T-2" value="" style="ellipse;whiteSpace=wrap;html=1;aspect=fixed;" vertex="1" parent="1">
          <mxGeometry x="400" y="260" width="30" height="30" as="geometry" />
        </mxCell>
        <mxCell id="mla7A_ORbmx96dpXD8-T-3" value="" style="ellipse;whiteSpace=wrap;html=1;aspect=fixed;" vertex="1" parent="1">
          <mxGeometry x="380" y="320" width="30" height="30" as="geometry" />
        </mxCell>
        <mxCell id="mla7A_ORbmx96dpXD8-T-4" value="" style="ellipse;whiteSpace=wrap;html=1;aspect=fixed;" vertex="1" parent="1">
          <mxGeometry x="450" y="300" width="30" height="30" as="geometry" />
        </mxCell>
        <mxCell id="mla7A_ORbmx96dpXD8-T-5" value="" style="ellipse;whiteSpace=wrap;html=1;aspect=fixed;" vertex="1" parent="1">
          <mxGeometry x="430" y="360" width="30" height="30" as="geometry" />
        </mxCell>
        <mxCell id="mla7A_ORbmx96dpXD8-T-6" value="" style="ellipse;whiteSpace=wrap;html=1;aspect=fixed;fillColor=#f8cecc;strokeColor=#b85450;" vertex="1" parent="1">
          <mxGeometry x="330" y="370" width="30" height="30" as="geometry" />
        </mxCell>
        <mxCell id="mla7A_ORbmx96dpXD8-T-7" value="" style="ellipse;whiteSpace=wrap;html=1;aspect=fixed;" vertex="1" parent="1">
          <mxGeometry x="220" y="360" width="30" height="30" as="geometry" />
        </mxCell>
        <mxCell id="mla7A_ORbmx96dpXD8-T-8" value="" style="ellipse;whiteSpace=wrap;html=1;aspect=fixed;" vertex="1" parent="1">
          <mxGeometry x="270" y="410" width="30" height="30" as="geometry" />
        </mxCell>
        <mxCell id="mla7A_ORbmx96dpXD8-T-9" value="" style="ellipse;whiteSpace=wrap;html=1;aspect=fixed;" vertex="1" parent="1">
          <mxGeometry x="370" y="420" width="30" height="30" as="geometry" />
        </mxCell>
        <mxCell id="mla7A_ORbmx96dpXD8-T-10" value="" style="ellipse;whiteSpace=wrap;html=1;aspect=fixed;" vertex="1" parent="1">
          <mxGeometry x="440" y="420" width="30" height="30" as="geometry" />
        </mxCell>
        <mxCell id="mla7A_ORbmx96dpXD8-T-11" value="&lt;font style=&quot;font-size: 16px;&quot;&gt;Sybil&lt;/font&gt;" style="shape=umlActor;verticalLabelPosition=bottom;verticalAlign=top;html=1;outlineConnect=0;fillColor=#f8cecc;strokeColor=#b85450;" vertex="1" parent="1">
          <mxGeometry x="120" y="260" width="30" height="60" as="geometry" />
        </mxCell>
        <mxCell id="mla7A_ORbmx96dpXD8-T-12" value="" style="endArrow=none;html=1;rounded=0;strokeWidth=1.5;entryX=0.014;entryY=0.316;entryDx=0;entryDy=0;exitX=0.5;exitY=0.5;exitDx=0;exitDy=0;exitPerimeter=0;entryPerimeter=0;" edge="1" parent="1" source="mla7A_ORbmx96dpXD8-T-11" target="mla7A_ORbmx96dpXD8-T-6">
          <mxGeometry width="50" height="50" relative="1" as="geometry">
            <mxPoint x="160" y="290" as="sourcePoint" />
            <mxPoint x="450" y="380" as="targetPoint" />
          </mxGeometry>
        </mxCell>
        <mxCell id="mla7A_ORbmx96dpXD8-T-13" value="" style="endArrow=none;html=1;rounded=0;strokeWidth=1.5;exitX=0;exitY=0;exitDx=0;exitDy=0;entryX=1;entryY=1;entryDx=0;entryDy=0;" edge="1" parent="1" source="mla7A_ORbmx96dpXD8-T-3" target="mla7A_ORbmx96dpXD8-T-1">
          <mxGeometry width="50" height="50" relative="1" as="geometry">
            <mxPoint x="115" y="440" as="sourcePoint" />
            <mxPoint x="340" y="395" as="targetPoint" />
          </mxGeometry>
        </mxCell>
        <mxCell id="mla7A_ORbmx96dpXD8-T-14" value="" style="endArrow=none;html=1;rounded=0;strokeWidth=1.5;exitX=0;exitY=0.5;exitDx=0;exitDy=0;entryX=1;entryY=0.5;entryDx=0;entryDy=0;" edge="1" parent="1" source="mla7A_ORbmx96dpXD8-T-2" target="mla7A_ORbmx96dpXD8-T-1">
          <mxGeometry width="50" height="50" relative="1" as="geometry">
            <mxPoint x="394.3933982822018" y="334.3933982822018" as="sourcePoint" />
            <mxPoint x="365.6066017177982" y="305.6066017177982" as="targetPoint" />
          </mxGeometry>
        </mxCell>
        <mxCell id="mla7A_ORbmx96dpXD8-T-15" value="" style="endArrow=none;html=1;rounded=0;strokeWidth=1.5;entryX=1;entryY=0;entryDx=0;entryDy=0;" edge="1" parent="1" target="mla7A_ORbmx96dpXD8-T-3">
          <mxGeometry width="50" height="50" relative="1" as="geometry">
            <mxPoint x="410" y="290" as="sourcePoint" />
            <mxPoint x="370" y="295" as="targetPoint" />
          </mxGeometry>
        </mxCell>
        <mxCell id="mla7A_ORbmx96dpXD8-T-16" value="" style="endArrow=none;html=1;rounded=0;strokeWidth=1.5;entryX=0;entryY=0;entryDx=0;entryDy=0;exitX=1;exitY=1;exitDx=0;exitDy=0;" edge="1" parent="1" source="mla7A_ORbmx96dpXD8-T-2" target="mla7A_ORbmx96dpXD8-T-4">
          <mxGeometry width="50" height="50" relative="1" as="geometry">
            <mxPoint x="420" y="300" as="sourcePoint" />
            <mxPoint x="415.6066017177982" y="334.3933982822018" as="targetPoint" />
          </mxGeometry>
        </mxCell>
        <mxCell id="mla7A_ORbmx96dpXD8-T-17" value="" style="endArrow=none;html=1;rounded=0;strokeWidth=1.5;entryX=1;entryY=1;entryDx=0;entryDy=0;exitX=0;exitY=0;exitDx=0;exitDy=0;" edge="1" parent="1" source="mla7A_ORbmx96dpXD8-T-5" target="mla7A_ORbmx96dpXD8-T-3">
          <mxGeometry width="50" height="50" relative="1" as="geometry">
            <mxPoint x="420" y="300" as="sourcePoint" />
            <mxPoint x="415.6066017177982" y="334.3933982822018" as="targetPoint" />
          </mxGeometry>
        </mxCell>
        <mxCell id="mla7A_ORbmx96dpXD8-T-18" value="" style="endArrow=none;html=1;rounded=0;strokeWidth=1.5;entryX=0.5;entryY=1;entryDx=0;entryDy=0;exitX=1;exitY=0;exitDx=0;exitDy=0;" edge="1" parent="1" source="mla7A_ORbmx96dpXD8-T-5" target="mla7A_ORbmx96dpXD8-T-4">
          <mxGeometry width="50" height="50" relative="1" as="geometry">
            <mxPoint x="435.6066017177982" y="295.6066017177982" as="sourcePoint" />
            <mxPoint x="464.3933982822018" y="314.3933982822018" as="targetPoint" />
          </mxGeometry>
        </mxCell>
        <mxCell id="mla7A_ORbmx96dpXD8-T-19" value="" style="endArrow=none;html=1;rounded=0;strokeWidth=1.5;exitX=0.5;exitY=1;exitDx=0;exitDy=0;" edge="1" parent="1" source="mla7A_ORbmx96dpXD8-T-5" target="mla7A_ORbmx96dpXD8-T-10">
          <mxGeometry width="50" height="50" relative="1" as="geometry">
            <mxPoint x="465.6066017177982" y="374.3933982822018" as="sourcePoint" />
            <mxPoint x="475" y="340" as="targetPoint" />
          </mxGeometry>
        </mxCell>
        <mxCell id="mla7A_ORbmx96dpXD8-T-20" value="" style="endArrow=none;html=1;rounded=0;strokeWidth=1.5;exitX=0;exitY=0.5;exitDx=0;exitDy=0;entryX=1;entryY=0.5;entryDx=0;entryDy=0;" edge="1" parent="1" source="mla7A_ORbmx96dpXD8-T-10" target="mla7A_ORbmx96dpXD8-T-9">
          <mxGeometry width="50" height="50" relative="1" as="geometry">
            <mxPoint x="455" y="400" as="sourcePoint" />
            <mxPoint x="461.74604313271993" y="430.3571940972397" as="targetPoint" />
          </mxGeometry>
        </mxCell>
        <mxCell id="mla7A_ORbmx96dpXD8-T-21" value="" style="endArrow=none;html=1;rounded=0;strokeWidth=1.5;exitX=0;exitY=0.5;exitDx=0;exitDy=0;entryX=1;entryY=0.5;entryDx=0;entryDy=0;" edge="1" parent="1" source="mla7A_ORbmx96dpXD8-T-5" target="mla7A_ORbmx96dpXD8-T-6">
          <mxGeometry width="50" height="50" relative="1" as="geometry">
            <mxPoint x="450" y="445" as="sourcePoint" />
            <mxPoint x="410" y="445" as="targetPoint" />
          </mxGeometry>
        </mxCell>
        <mxCell id="mla7A_ORbmx96dpXD8-T-22" value="" style="endArrow=none;html=1;rounded=0;strokeWidth=1.5;exitX=0;exitY=0;exitDx=0;exitDy=0;" edge="1" parent="1" source="mla7A_ORbmx96dpXD8-T-9">
          <mxGeometry width="50" height="50" relative="1" as="geometry">
            <mxPoint x="440" y="385" as="sourcePoint" />
            <mxPoint x="350" y="400" as="targetPoint" />
          </mxGeometry>
        </mxCell>
        <mxCell id="mla7A_ORbmx96dpXD8-T-23" value="" style="endArrow=none;html=1;rounded=0;strokeWidth=1.5;exitX=0;exitY=0.5;exitDx=0;exitDy=0;entryX=1;entryY=1;entryDx=0;entryDy=0;" edge="1" parent="1" source="mla7A_ORbmx96dpXD8-T-9" target="mla7A_ORbmx96dpXD8-T-8">
          <mxGeometry width="50" height="50" relative="1" as="geometry">
            <mxPoint x="384.3933982822018" y="434.3933982822018" as="sourcePoint" />
            <mxPoint x="360" y="410" as="targetPoint" />
          </mxGeometry>
        </mxCell>
        <mxCell id="mla7A_ORbmx96dpXD8-T-24" value="" style="endArrow=none;html=1;rounded=0;strokeWidth=1.5;exitX=0;exitY=0;exitDx=0;exitDy=0;entryX=1;entryY=1;entryDx=0;entryDy=0;" edge="1" parent="1" source="mla7A_ORbmx96dpXD8-T-8" target="mla7A_ORbmx96dpXD8-T-7">
          <mxGeometry width="50" height="50" relative="1" as="geometry">
            <mxPoint x="380" y="445" as="sourcePoint" />
            <mxPoint x="305.6066017177982" y="445.6066017177982" as="targetPoint" />
          </mxGeometry>
        </mxCell>
        <mxCell id="mla7A_ORbmx96dpXD8-T-25" value="" style="endArrow=none;html=1;rounded=0;strokeWidth=1.5;exitX=0;exitY=0.5;exitDx=0;exitDy=0;entryX=1;entryY=0.5;entryDx=0;entryDy=0;" edge="1" parent="1" source="mla7A_ORbmx96dpXD8-T-6" target="mla7A_ORbmx96dpXD8-T-7">
          <mxGeometry width="50" height="50" relative="1" as="geometry">
            <mxPoint x="284.3933982822018" y="424.3933982822018" as="sourcePoint" />
            <mxPoint x="255.60660171779818" y="395.6066017177982" as="targetPoint" />
          </mxGeometry>
        </mxCell>
        <mxCell id="mla7A_ORbmx96dpXD8-T-26" value="" style="endArrow=none;html=1;rounded=0;strokeWidth=1.5;exitX=1;exitY=0;exitDx=0;exitDy=0;entryX=0;entryY=1;entryDx=0;entryDy=0;" edge="1" parent="1" source="mla7A_ORbmx96dpXD8-T-8" target="mla7A_ORbmx96dpXD8-T-6">
          <mxGeometry width="50" height="50" relative="1" as="geometry">
            <mxPoint x="384.3933982822018" y="434.3933982822018" as="sourcePoint" />
            <mxPoint x="360" y="410" as="targetPoint" />
          </mxGeometry>
        </mxCell>
        <mxCell id="mla7A_ORbmx96dpXD8-T-27" value="" style="ellipse;whiteSpace=wrap;html=1;aspect=fixed;" vertex="1" parent="1">
          <mxGeometry x="210" y="170" width="30" height="30" as="geometry" />
        </mxCell>
        <mxCell id="mla7A_ORbmx96dpXD8-T-28" value="Honest nodes" style="text;html=1;strokeColor=none;fillColor=none;align=center;verticalAlign=middle;whiteSpace=wrap;rounded=0;" vertex="1" parent="1">
          <mxGeometry x="230" y="175" width="100" height="20" as="geometry" />
        </mxCell>
        <mxCell id="mla7A_ORbmx96dpXD8-T-44" value="" style="ellipse;whiteSpace=wrap;html=1;aspect=fixed;fillColor=#f8cecc;strokeColor=#b85450;" vertex="1" parent="1">
          <mxGeometry x="340" y="170" width="30" height="30" as="geometry" />
        </mxCell>
        <mxCell id="mla7A_ORbmx96dpXD8-T-45" value="Sybil node" style="text;html=1;strokeColor=none;fillColor=none;align=center;verticalAlign=middle;whiteSpace=wrap;rounded=0;" vertex="1" parent="1">
          <mxGeometry x="350" y="175" width="100" height="20" as="geometry" />
        </mxCell>
        <mxCell id="mla7A_ORbmx96dpXD8-T-72" value="&lt;font style=&quot;font-size: 16px;&quot;&gt;Blockchain and Nodes&lt;/font&gt;" style="text;html=1;strokeColor=none;fillColor=none;align=center;verticalAlign=middle;whiteSpace=wrap;rounded=0;" vertex="1" parent="1">
          <mxGeometry x="290" y="460" width="170" height="30" as="geometry" />
        </mxCell>
      </root>
    </mxGraphModel>
  </diagram>
</mxfile>
